<svg width="1600" height="572" viewBox="0 0 1600 572" fill="none" xmlns="http://www.w3.org/2000/svg">
<mask id="mask0" mask-type="alpha" maskUnits="userSpaceOnUse" x="0" y="0" width="1600" height="572">
<path d="M1600 0H0V572H1600V0Z" fill="#C4C4C4"/>
</mask>
<g mask="url(#mask0)">
<path d="M124 446C82.8 446 14.1667 496.667 -13 521V766H1613.5V333C1610.5 314.333 1595.2 277 1558 277C1511.5 277 1477.5 351 1434.5 351C1391.5 351 1360 248 1316.5 248C1273 248 1236 398 1198.5 398C1161 398 1118 308.5 1075.5 308.5C1033 308.5 1013 437 963.5 437C914 437 882.5 360.5 833.5 360.5C784.5 360.5 767.5 437 718 437C668.5 437 640 335 597.5 335C555 335 514.5 483.5 477.5 483.5C440.5 483.5 404 394 359.5 394C315 394 285.5 523.5 241.5 523.5C197.5 523.5 175.5 446 124 446Z" fill="url(#paint0_linear)"/>
<g filter="url(#filter0_d)">
<path d="M-13 518C14.1667 493.667 82.8 443 124 443C175.5 443 197.5 520.5 241.5 520.5C285.5 520.5 315 391 359.5 391C404 391 440.5 480.5 477.5 480.5C514.5 480.5 555 332 597.5 332C640 332 668.5 434 718 434C767.5 434 784.5 357.5 833.5 357.5C882.5 357.5 914 434 963.5 434C1013 434 1033 305.5 1075.5 305.5C1118 305.5 1161 395 1198.5 395C1236 395 1273 245 1316.5 245C1360 245 1391.5 348 1434.5 348C1477.5 348 1511.5 274 1558 274C1595.2 274 1610.5 311.333 1613.5 330" stroke="url(#paint1_linear)" stroke-width="8"/>
</g>
</g>
<defs>
<filter id="filter0_d" x="-37.6687" y="222" width="1681.12" height="331.5" filterUnits="userSpaceOnUse" color-interpolation-filters="sRGB">
<feFlood flood-opacity="0" result="BackgroundImageFix"/>
<feColorMatrix in="SourceAlpha" type="matrix" values="0 0 0 0 0 0 0 0 0 0 0 0 0 0 0 0 0 0 127 0"/>
<feOffset dx="2" dy="5"/>
<feGaussianBlur stdDeviation="12"/>
<feColorMatrix type="matrix" values="0 0 0 0 0.0515055 0 0 0 0 0.0758029 0 0 0 0 0.318777 0 0 0 1 0"/>
<feBlend mode="normal" in2="BackgroundImageFix" result="effect1_dropShadow"/>
<feBlend mode="normal" in="SourceGraphic" in2="effect1_dropShadow" result="shape"/>
</filter>
<linearGradient id="paint0_linear" x1="1613.5" y1="248" x2="1613.5" y2="766" gradientUnits="userSpaceOnUse">
<stop stop-color="#131B57"/>
<stop offset="1" stop-color="#2E3880" stop-opacity="0"/>
</linearGradient>
<linearGradient id="paint1_linear" x1="-657.833" y1="-4498.24" x2="1042.17" y2="-4699.24" gradientUnits="userSpaceOnUse">
<stop stop-color="#B711FF"/>
<stop offset="1" stop-color="#3460FF"/>
</linearGradient>
</defs>
</svg>
